# Blender v2.79 (sub 0) OBJ File: 'Furnitutres.blend'
# www.blender.org
mtllib mj_chest01.mtl
o mj_chest01.001_Cube.045
v -0.000004 83.000000 39.987804
v -0.000004 83.000000 -0.012195
v 120.000000 83.000000 39.987804
v 120.000000 83.000000 -0.012195
v -0.000004 81.291412 39.987804
v -0.000004 81.291412 -0.012195
v 120.000000 81.291412 39.987804
v 120.000000 81.291412 -0.012195
v 0.299995 10.288540 38.012196
v 0.299995 26.518005 38.012196
v 59.699997 10.288540 38.012196
v 59.699997 26.518005 38.012196
v 0.299995 10.288540 39.825203
v 0.299995 26.518005 39.825203
v 59.699997 10.288540 39.825203
v 59.699997 26.518005 39.825203
v 0.299995 28.140951 38.012196
v 0.299995 44.370415 38.012196
v 59.699997 28.140951 38.012196
v 59.699997 44.370415 38.012196
v 0.299995 28.140951 39.825203
v 0.299995 44.370415 39.825203
v 59.699997 28.140951 39.825203
v 59.699997 44.370415 39.825203
v 0.299995 45.993359 38.012196
v 0.299995 62.222824 38.012196
v 59.699997 45.993359 38.012196
v 59.699997 62.222824 38.012196
v 0.299995 45.993359 39.825203
v 0.299995 62.222824 39.825203
v 59.699997 45.993359 39.825203
v 59.699997 62.222824 39.825203
v 0.299995 63.845768 38.012196
v 0.299995 80.075233 38.012196
v 59.699997 63.845768 38.012196
v 59.699997 80.075233 38.012196
v 0.299995 63.845768 39.825203
v 0.299995 80.075233 39.825203
v 59.699997 63.845768 39.825203
v 59.699997 80.075233 39.825203
v 60.299995 10.288540 38.012196
v 60.299995 26.518005 38.012196
v 119.699997 10.288540 38.012196
v 119.699997 26.518005 38.012196
v 60.299995 10.288540 39.825203
v 60.299995 26.518005 39.825203
v 119.699997 10.288540 39.825203
v 119.699997 26.518005 39.825203
v 60.299995 28.140951 38.012196
v 60.299995 44.370415 38.012196
v 119.699997 28.140951 38.012196
v 119.699997 44.370415 38.012196
v 60.299995 28.140951 39.825203
v 60.299995 44.370415 39.825203
v 119.699997 28.140951 39.825203
v 119.699997 44.370415 39.825203
v 60.299995 45.993359 38.012196
v 60.299995 62.222824 38.012196
v 119.699997 45.993359 38.012196
v 119.699997 62.222824 38.012196
v 60.299995 45.993359 39.825203
v 60.299995 62.222824 39.825203
v 119.699997 45.993359 39.825203
v 119.699997 62.222824 39.825203
v 60.299995 63.845768 38.012196
v 60.299995 80.075233 38.012196
v 119.699997 63.845768 38.012196
v 119.699997 80.075233 38.012196
v 60.299995 63.845768 39.825203
v 60.299995 80.075233 39.825203
v 119.699997 63.845768 39.825203
v 119.699997 80.075233 39.825203
v 116.319992 -0.000001 37.724392
v 116.319992 10.434284 37.724392
v 116.319992 -0.000001 34.446339
v 116.319992 10.434284 34.446339
v 119.679993 -0.000001 37.724392
v 119.679993 10.434284 37.724392
v 119.679993 -0.000001 34.446339
v 119.679993 10.434284 34.446339
v 116.319992 -0.000001 4.553658
v 116.319992 10.434284 4.553658
v 116.319992 -0.000001 1.275608
v 116.319992 10.434284 1.275608
v 119.679993 -0.000001 4.553658
v 119.679993 10.434284 4.553658
v 119.679993 -0.000001 1.275608
v 119.679993 10.434284 1.275608
v 3.679996 -0.000001 37.724392
v 3.679996 10.434284 37.724392
v 3.679996 -0.000001 34.446339
v 3.679996 10.434284 34.446339
v 0.319996 -0.000001 37.724392
v 0.319996 10.434284 37.724392
v 0.319996 -0.000001 34.446339
v 0.319996 10.434284 34.446339
v 3.679996 -0.000001 4.553658
v 3.679996 10.434284 4.553658
v 3.679996 -0.000001 1.275608
v 3.679996 10.434284 1.275608
v 0.319996 -0.000001 4.553658
v 0.319996 10.434284 4.553658
v 0.319996 -0.000001 1.275608
v 0.319996 10.434284 1.275608
v -0.000004 9.880951 39.012196
v -0.000004 81.459206 39.012196
v -0.000004 9.880951 -0.012195
v -0.000004 81.459206 -0.012195
v 120.000000 9.880951 39.012196
v 120.000000 81.459206 39.012196
v 120.000000 9.880951 -0.012195
v 120.000000 81.459206 -0.012195
v 1.442764 26.678568 38.036583
v 118.557228 26.678568 38.036583
v 1.442764 44.464279 38.036583
v 118.557228 44.464279 38.036583
v 1.442764 62.249992 38.036583
v 118.557228 62.249992 38.036583
v 61.249996 10.869046 38.036583
v 61.249996 81.023804 38.036583
v 1.767708 12.179914 39.012196
v 1.767708 79.160248 39.012196
v 118.232285 12.179914 39.012196
v 118.232285 79.160248 39.012196
v 1.442764 28.387150 38.036583
v 118.557228 28.387150 38.036583
v 1.442764 46.172863 38.036583
v 118.557228 46.172863 38.036583
v 1.442764 63.958572 38.036583
v 118.557228 63.958572 38.036583
v 58.749996 10.869046 38.036583
v 58.749996 81.023804 38.036583
vt 0.000000 0.000000
vt 0.348095 0.000000
vt 0.348095 0.402750
vt 0.000000 0.402750
vt 0.303810 0.805501
vt 0.303810 0.402750
vt 0.311062 0.402750
vt 0.311062 0.805501
vt 0.332818 0.402750
vt 0.332818 0.795678
vt 0.325566 0.795678
vt 0.325566 0.402750
vt 0.311062 0.805501
vt 0.311062 0.402750
vt 0.318314 0.402750
vt 0.318314 0.805501
vt 0.325566 0.402750
vt 0.325566 0.795678
vt 0.318314 0.795678
vt 0.386498 0.621725
vt 0.580997 0.621725
vt 0.580997 0.690611
vt 0.386498 0.690611
vt 0.119649 0.923427
vt 0.119649 0.845670
vt 0.126901 0.845670
vt 0.126901 0.923427
vt 0.866550 0.785855
vt 0.866550 0.980354
vt 0.859298 0.980354
vt 0.859298 0.785855
vt 0.837543 0.980354
vt 0.837543 0.785855
vt 0.844795 0.785855
vt 0.844795 0.980354
vt 0.170413 0.923427
vt 0.170413 0.845670
vt 0.177665 0.845670
vt 0.177665 0.923427
vt 0.386498 0.552840
vt 0.580997 0.552840
vt 0.580997 0.621725
vt 0.386498 0.621725
vt 0.076137 0.845670
vt 0.076137 0.923427
vt 0.068885 0.923427
vt 0.068885 0.845670
vt 0.873802 0.785855
vt 0.873802 0.980354
vt 0.866550 0.980354
vt 0.866550 0.785855
vt 0.844795 0.980354
vt 0.844795 0.785855
vt 0.852046 0.785855
vt 0.852046 0.980354
vt 0.134153 0.845670
vt 0.134153 0.923427
vt 0.126901 0.923427
vt 0.126901 0.845670
vt 0.560367 0.874226
vt 0.365868 0.874226
vt 0.365868 0.805341
vt 0.560367 0.805341
vt 0.112397 0.845670
vt 0.112397 0.923427
vt 0.105145 0.923427
vt 0.105145 0.845670
vt 0.347322 0.786229
vt 0.347322 0.980728
vt 0.340070 0.980728
vt 0.340070 0.786229
vt 0.852046 0.980354
vt 0.852046 0.785855
vt 0.859298 0.785855
vt 0.859298 0.980354
vt 0.112397 0.923427
vt 0.112397 0.845670
vt 0.119649 0.845670
vt 0.119649 0.923427
vt 0.365868 0.874226
vt 0.560367 0.874226
vt 0.560367 0.943112
vt 0.365868 0.943112
vt 0.155909 0.845670
vt 0.155909 0.923427
vt 0.148657 0.923427
vt 0.148657 0.845670
vt 0.340070 0.786229
vt 0.340070 0.980728
vt 0.332818 0.980728
vt 0.332818 0.786229
vt 0.830291 0.980354
vt 0.830291 0.785855
vt 0.837543 0.785855
vt 0.837543 0.980354
vt 0.163161 0.923427
vt 0.163161 0.845670
vt 0.170413 0.845670
vt 0.170413 0.923427
vt 0.386498 0.483955
vt 0.580997 0.483955
vt 0.580997 0.552840
vt 0.386498 0.552840
vt 0.163161 0.845670
vt 0.163161 0.923427
vt 0.155909 0.923427
vt 0.155909 0.845670
vt 0.303810 1.000000
vt 0.303810 0.805501
vt 0.311062 0.805501
vt 0.311062 1.000000
vt 0.888306 0.785855
vt 0.888306 0.980354
vt 0.881054 0.980354
vt 0.881054 0.785855
vt 0.177665 0.923427
vt 0.177665 0.845670
vt 0.184917 0.845670
vt 0.184917 0.923427
vt 0.386498 0.415070
vt 0.580997 0.415070
vt 0.580997 0.483955
vt 0.386498 0.483955
vt 0.083389 0.845670
vt 0.083389 0.923427
vt 0.076137 0.923427
vt 0.076137 0.845670
vt 0.325566 0.990177
vt 0.325566 0.795678
vt 0.332818 0.795678
vt 0.332818 0.990177
vt 0.895558 0.785855
vt 0.895558 0.980354
vt 0.888306 0.980354
vt 0.888306 0.785855
vt 0.097893 0.845670
vt 0.097893 0.923427
vt 0.090641 0.923427
vt 0.090641 0.845670
vt 0.766655 0.876940
vt 0.572156 0.876940
vt 0.572156 0.808055
vt 0.766655 0.808055
vt 0.148657 0.845670
vt 0.148657 0.923427
vt 0.141405 0.923427
vt 0.141405 0.845670
vt 0.873802 0.980354
vt 0.873802 0.785855
vt 0.881054 0.785855
vt 0.881054 0.980354
vt 0.902810 0.785855
vt 0.902810 0.980354
vt 0.895558 0.980354
vt 0.895558 0.785855
vt 0.083389 0.923427
vt 0.083389 0.845670
vt 0.090641 0.845670
vt 0.090641 0.923427
vt 0.386498 0.690611
vt 0.580997 0.690611
vt 0.580997 0.759496
vt 0.386498 0.759496
vt 0.141405 0.845670
vt 0.141405 0.923427
vt 0.134153 0.923427
vt 0.134153 0.845670
vt 0.318314 0.990177
vt 0.318314 0.795678
vt 0.325566 0.795678
vt 0.325566 0.990177
vt 0.318314 0.805501
vt 0.318314 1.000000
vt 0.311062 1.000000
vt 0.311062 0.805501
vt 0.097893 0.923427
vt 0.097893 0.845670
vt 0.105145 0.845670
vt 0.105145 0.923427
vt 0.185845 0.845670
vt 0.185845 0.795678
vt 0.215085 0.795678
vt 0.215085 0.845670
vt 0.223903 0.895661
vt 0.223903 0.845670
vt 0.233650 0.845670
vt 0.233650 0.895661
vt 0.156605 0.845670
vt 0.156605 0.795678
vt 0.185845 0.795678
vt 0.185845 0.845670
vt 0.243397 0.895661
vt 0.243397 0.845670
vt 0.253143 0.845670
vt 0.253143 0.895661
vt 0.272637 0.845670
vt 0.282383 0.845670
vt 0.282383 0.878676
vt 0.272637 0.878676
vt 0.244325 0.845670
vt 0.244325 0.795678
vt 0.273565 0.795678
vt 0.273565 0.845670
vt 0.243397 0.845670
vt 0.243397 0.895661
vt 0.233650 0.895661
vt 0.233650 0.845670
vt 0.302805 0.795678
vt 0.302805 0.845670
vt 0.273565 0.845670
vt 0.273565 0.795678
vt 0.253143 0.895661
vt 0.253143 0.845670
vt 0.262890 0.845670
vt 0.262890 0.895661
vt 0.292130 0.845670
vt 0.301877 0.845670
vt 0.301877 0.878676
vt 0.292130 0.878676
vt 0.098125 0.845670
vt 0.068885 0.845670
vt 0.068885 0.795678
vt 0.098125 0.795678
vt 0.223903 0.895661
vt 0.214157 0.895661
vt 0.214157 0.845670
vt 0.223903 0.845670
vt 0.127365 0.845670
vt 0.098125 0.845670
vt 0.098125 0.795678
vt 0.127365 0.795678
vt 0.214157 0.895661
vt 0.204410 0.895661
vt 0.204410 0.845670
vt 0.214157 0.845670
vt 0.272637 0.845670
vt 0.272637 0.878676
vt 0.262890 0.878676
vt 0.262890 0.845670
vt 0.156605 0.845670
vt 0.127365 0.845670
vt 0.127365 0.795678
vt 0.156605 0.795678
vt 0.184917 0.845670
vt 0.194663 0.845670
vt 0.194663 0.895661
vt 0.184917 0.895661
vt 0.244325 0.845670
vt 0.215085 0.845670
vt 0.215085 0.795678
vt 0.244325 0.795678
vt 0.204410 0.895661
vt 0.194663 0.895661
vt 0.194663 0.845670
vt 0.204410 0.845670
vt 0.292130 0.845670
vt 0.292130 0.878676
vt 0.282383 0.878676
vt 0.282383 0.845670
vt 0.955715 0.785855
vt 0.651905 0.785855
vt 0.651905 0.392927
vt 0.955715 0.392927
vt 0.303810 0.795678
vt 0.000000 0.795678
vt 0.000000 0.402750
vt 0.303810 0.402750
vt 1.000000 0.392927
vt 0.696190 0.392927
vt 0.696190 0.000000
vt 1.000000 0.000000
vt 0.348095 0.392927
vt 0.348095 0.000000
vt 0.696190 0.000000
vt 0.696190 0.392927
vt 0.348095 0.785855
vt 0.353223 0.780066
vt 0.646777 0.780066
vt 0.348095 0.392927
vt 0.651905 0.392927
vt 0.646777 0.398715
vt 0.353223 0.398716
vt 0.340070 0.786229
vt 0.340070 0.402750
vt 0.347322 0.402750
vt 0.347322 0.786229
vt 0.955715 0.776406
vt 0.955715 0.392927
vt 0.962967 0.392927
vt 0.962967 0.776406
vt 0.332818 0.786229
vt 0.332818 0.402750
vt 0.340070 0.402750
vt 0.340070 0.786229
vt 0.962967 0.729046
vt 0.962967 0.392927
vt 0.970219 0.392927
vt 0.970219 0.729046
vn 0.0000 1.0000 0.0000
vn -1.0000 0.0000 0.0000
vn 0.0000 0.0000 -1.0000
vn 1.0000 0.0000 0.0000
vn 0.0000 0.0000 1.0000
vn 0.0000 -1.0000 0.0000
usemtl mat_o_mj_chest01
s off
f 4/1/1 2/2/1 1/3/1 3/4/1
f 1/5/2 2/6/2 6/7/2 5/8/2
f 2/9/3 4/10/3 8/11/3 6/12/3
f 4/13/4 3/14/4 7/15/4 8/16/4
f 3/17/5 1/18/5 5/19/5 7/15/5
f 13/20/5 15/21/5 16/22/5 14/23/5
f 10/24/2 9/25/2 13/26/2 14/27/2
f 9/28/6 11/29/6 15/30/6 13/31/6
f 12/32/1 10/33/1 14/34/1 16/35/1
f 11/36/4 12/37/4 16/38/4 15/39/4
f 21/40/5 23/41/5 24/42/5 22/43/5
f 18/44/2 17/45/2 21/46/2 22/47/2
f 17/48/6 19/49/6 23/50/6 21/51/6
f 20/52/1 18/53/1 22/54/1 24/55/1
f 19/56/4 20/57/4 24/58/4 23/59/4
f 29/60/5 31/61/5 32/62/5 30/63/5
f 26/64/2 25/65/2 29/66/2 30/67/2
f 25/68/6 27/69/6 31/70/6 29/71/6
f 28/72/1 26/73/1 30/74/1 32/75/1
f 27/76/4 28/77/4 32/78/4 31/79/4
f 37/80/5 39/81/5 40/82/5 38/83/5
f 34/84/2 33/85/2 37/86/2 38/87/2
f 33/88/6 35/89/6 39/90/6 37/91/6
f 36/92/1 34/93/1 38/94/1 40/95/1
f 35/96/4 36/97/4 40/98/4 39/99/4
f 45/100/5 47/101/5 48/102/5 46/103/5
f 42/104/2 41/105/2 45/106/2 46/107/2
f 41/108/6 43/109/6 47/110/6 45/111/6
f 44/112/1 42/113/1 46/114/1 48/115/1
f 43/116/4 44/117/4 48/118/4 47/119/4
f 53/120/5 55/121/5 56/122/5 54/123/5
f 50/124/2 49/125/2 53/126/2 54/127/2
f 49/128/6 51/129/6 55/130/6 53/131/6
f 52/132/1 50/133/1 54/134/1 56/135/1
f 51/136/4 52/137/4 56/138/4 55/139/4
f 61/140/5 63/141/5 64/142/5 62/143/5
f 58/144/2 57/145/2 61/146/2 62/147/2
f 57/148/6 59/149/6 63/150/6 61/151/6
f 60/152/1 58/153/1 62/154/1 64/155/1
f 59/156/4 60/157/4 64/158/4 63/159/4
f 69/160/5 71/161/5 72/162/5 70/163/5
f 66/164/2 65/165/2 69/166/2 70/167/2
f 65/168/6 67/169/6 71/170/6 69/171/6
f 68/172/1 66/173/1 70/174/1 72/175/1
f 67/176/4 68/177/4 72/178/4 71/179/4
f 73/180/2 74/181/2 76/182/2 75/183/2
f 75/184/3 76/185/3 80/186/3 79/187/3
f 79/188/4 80/189/4 78/190/4 77/191/4
f 77/192/5 78/193/5 74/194/5 73/195/5
f 75/196/6 79/197/6 77/198/6 73/199/6
f 81/200/2 82/201/2 84/202/2 83/203/2
f 83/204/3 84/205/3 88/206/3 87/207/3
f 87/208/4 88/209/4 86/210/4 85/211/4
f 85/212/5 86/213/5 82/214/5 81/215/5
f 83/216/6 87/217/6 85/218/6 81/219/6
f 89/220/4 91/221/4 92/222/4 90/223/4
f 91/224/3 95/225/3 96/226/3 92/227/3
f 95/228/2 93/229/2 94/230/2 96/231/2
f 93/232/5 89/233/5 90/234/5 94/235/5
f 91/236/6 89/237/6 93/238/6 95/239/6
f 97/240/4 99/241/4 100/242/4 98/243/4
f 99/244/3 103/245/3 104/246/3 100/247/3
f 103/248/2 101/249/2 102/250/2 104/251/2
f 101/252/5 97/253/5 98/254/5 102/255/5
f 99/256/6 97/257/6 101/258/6 103/259/6
f 105/260/2 106/261/2 108/262/2 107/263/2
f 107/264/3 108/265/3 112/266/3 111/267/3
f 111/268/4 112/269/4 110/270/4 109/271/4
f 107/272/6 111/273/6 109/274/6 105/275/6
f 106/261/5 105/276/5 121/277/5 122/278/5
f 109/279/5 110/280/5 124/281/5 123/282/5
f 105/276/5 109/279/5 123/282/5 121/277/5
f 110/280/5 106/261/5 122/278/5 124/281/5
f 113/283/5 114/284/5 126/285/5 125/286/5
f 115/287/5 116/288/5 128/289/5 127/290/5
f 117/291/5 118/292/5 130/293/5 129/294/5
f 119/295/5 120/296/5 132/297/5 131/298/5
